<?xml version="1.0" encoding="utf-8"?>
<!-- Generator: Adobe Illustrator 27.7.0, SVG Export Plug-In . SVG Version: 6.00 Build 0)  -->
<svg version="1.1" id="_레이어_1" xmlns="http://www.w3.org/2000/svg" xmlns:xlink="http://www.w3.org/1999/xlink" x="0px"
	 y="0px" viewBox="0 0 1024 1024" style="enable-background:new 0 0 1024 1024;" xml:space="preserve">
<style type="text/css">
	.st0{fill:#00DCF4;}
	.st1{fill:#FFFFFF;}
</style>
<circle class="st0" cx="512" cy="512" r="507"/>
<path class="st1" d="M644.1,729.8c-0.6,1.3-1.2,2.5-1.8,3.8c-5.9,10.9-15.9,20.3-29.2,26c-0.1,0-0.2,0.1-0.3,0.1l-52.6,22.5
	c-0.2,0.1-0.3,0.1-0.5,0.2c-63.7,34-35.7,111.8,14,153.6c8.1,6.8,16.7,12.6,25.7,17.2c5,2.6,3.3,10.1-2.4,10.1H489.8H382.6h-0.1
	c-5.6,0-7.4-7.5-2.4-10.1c8.9-4.5,17.6-10.4,25.7-17.2c49.7-41.8,77.8-119.6,13.9-153.6c-0.1-0.1-0.3-0.1-0.5-0.2l-52.6-22.5
	c-0.1,0-0.2-0.1-0.3-0.1c-13.2-5.7-23.3-15-29.2-26c-0.7-1.2-1.3-2.5-1.8-3.8c-2.2-5.1,4-9.7,8.3-6.2c9.6,7.8,19.2,14.5,28.5,19.7
	c1.7,1,3.4,1.9,5.1,2.7c0.1,0,0.1,0.1,0.2,0.1l47.9,24c0.2,0.1,0.3,0.2,0.5,0.3c55.3,34.5,45.8,111.3,11.2,157
	c-2.7,3.5-0.2,8.6,4.2,8.6h48.4H538c4.4,0,6.9-5,4.2-8.6c-34.6-45.7-44.1-122.5,11.2-157c0.2-0.1,0.3-0.2,0.5-0.3l47.9-24
	c0.1,0,0.2-0.1,0.2-0.1c1.7-0.9,3.4-1.8,5.1-2.7c9.3-5.2,19-11.9,28.5-19.7C640.1,720.1,646.3,724.7,644.1,729.8L644.1,729.8z
	 M529.2,194c0,1.4,0,2.8,0.1,4.2C529.3,196.8,529.3,195.4,529.2,194z M649.8,269c0,0.3,0.1,0.5,0.1,0.8L649.8,269
	C649.9,268.9,649.8,269,649.8,269z M623.1,273.6c-43.9,0-79.6-35.6-79.6-79.6h-14.3c0.1,1.4,0.1,2.8,0.1,4.2
	c2.2,49.9,43.3,89.6,93.8,89.6c9.3,0,18.3-1.4,26.8-3.9v-14.3c0-0.3-0.1-0.5-0.1-0.8C641.5,271.9,632.5,273.6,623.1,273.6
	L623.1,273.6z M520.4,279.1c-7.5,41.8-17.9,85.3-23.6,116c-0.7,3.5-3.5,5.2-6.3,5.3c-0.2,0-0.5,0-0.7,0l0,0l0,0l0,0
	c-0.2,0-0.5,0.1-0.7,0c-2.8,0-5.6-1.8-6.3-5.3c-9.9-53.7-34.4-146.9-32.4-201H329.6c19.5,58.7-51.6,318.3-59.1,380.3
	c-8,39.8,23.7,89.9,61,124.7c13.4,12.5,27.4,23,40.7,30.4c1.7,1,3.4,1.9,5.1,2.7c-12.1-6.1-21.2-16-26.6-27.7
	c-4.9-10.7-6.6-23-4.2-35.2c0.3-1.7,0.7-3.4,1-5.2c2.6-13,5.5-28.2,8.7-44.5c1.5-6.7,2.8-13.1,3.7-18.9c0.3-1.4,0.5-2.8,0.8-4.2
	l1.8-9.3c0.9-4.8,1.9-9.5,2.8-14.3l3.8-19.2c0.6-3.2,1.3-6.4,1.9-9.6c4.1-20.6,8-40.7,11.5-58.4c0.3-0.1,0.7-0.2,1-0.2
	c0.4-0.1,0.8-0.1,1.2-0.1c0.4,0,0.8,0,1.2,0.1c2.7,0.4,5.3,2,5.9,4.9l0.1,0.6c0,0.1,0.1,0.3,0.1,0.5l0.2,1.1l1.5,6.7l0,0
	c0.1,0.6,5.9,25.8,12.6,55c0.4,1.5,0.7,3.1,1,4.6c0.8,3.4,1.5,6.8,2.3,10.2c0.1,0.6,0.3,1.1,0.4,1.7c0.4,1.6,0.7,3.1,1.1,4.6
	c1.1,4.7,2.1,9.3,3.2,13.8c0,0,0,0,0,0.1c0.6,2.5,1.2,5,1.7,7.5c0.3,1.3,0.6,2.5,0.9,3.7c0.4,1.6,0.7,3.2,1.1,4.7
	c0.5,2.3,1,4.5,1.5,6.7c0.2,0.7,0.3,1.5,0.5,2.1c0.5,2.1,1,4.2,1.4,6.2c0.2,0.6,0.3,1.3,0.4,1.9c0.3,1.3,0.6,2.5,0.8,3.7
	c0.3,1.2,0.5,2.3,0.8,3.4c0.3,1.1,0.5,2.1,0.7,3.1v0.1c0.3,1.5,0.6,2.8,0.9,4.1c0.1,0.3,0.2,0.7,0.2,1c0.2,0.9,0.4,1.6,0.5,2.4
	c0.2,0.8,0.4,1.4,0.5,2c0.1,0.2,0.1,0.4,0.1,0.5c0,0.2,0.1,0.3,0.1,0.4c0.1,0.1,0.1,0.3,0.1,0.4c0,0.1,0.1,0.3,0.1,0.4
	c0.1,0.2,0.1,0.3,0.1,0.4c0.1,0.1,0.1,0.2,0.1,0.3l0,0c2.4,11.1,9,20.4,18,27.5c12,9.4,28.2,14.7,44.5,14.9l0,0l0,0l0,0
	c16.3-0.2,32.5-5.5,44.5-14.9c9-7.1,15.6-16.4,18-27.5l0,0c0,0,0-0.1,0.1-0.3c0-0.1,0.1-0.2,0.1-0.4c0-0.1,0.1-0.2,0.1-0.4
	c0-0.1,0.1-0.3,0.1-0.4c0-0.1,0.1-0.3,0.1-0.4c0-0.2,0.1-0.3,0.1-0.5c0.1-0.6,0.3-1.2,0.5-2c0.2-0.7,0.3-1.5,0.5-2.4
	c0.1-0.3,0.1-0.7,0.2-1c0.3-1.2,0.6-2.6,0.9-4.1v-0.1c0.2-1,0.5-2,0.7-3.1c0.3-1.1,0.5-2.2,0.8-3.4s0.5-2.4,0.8-3.7
	c0.1-0.6,0.3-1.3,0.4-1.9c0.4-2,0.9-4,1.4-6.2c0.2-0.7,0.3-1.4,0.5-2.1c0.5-2.2,1-4.4,1.5-6.7c0.4-1.5,0.7-3.1,1.1-4.7
	c0.3-1.2,0.6-2.5,0.9-3.7c0.5-2.5,1.1-5,1.7-7.5c0,0,0,0,0-0.1c1-4.5,2.1-9.2,3.2-13.8c0.3-1.5,0.7-3.1,1.1-4.6
	c0.1-0.6,0.3-1.1,0.4-1.7c0.8-3.4,1.5-6.8,2.3-10.2c0.4-1.5,0.7-3.1,1-4.6c6.7-29.2,12.5-54.4,12.6-55l0,0l1.5-6.7l0.2-1.1
	c0.1-0.2,0.1-0.4,0.1-0.5l0.1-0.6c0.7-2.9,3.2-4.5,5.9-4.9c0.4-0.1,0.8-0.1,1.2-0.1s0.8,0,1.2,0.1c0.3,0,0.7,0.1,1,0.2
	c3.5,17.7,7.4,37.8,11.5,58.4c0.6,3.2,1.3,6.4,1.9,9.6l3.8,19.2c0.9,4.8,1.9,9.6,2.8,14.3l1.8,9.3c0.3,1.4,0.6,2.8,0.8,4.2
	c0.9,5.9,2.2,12.3,3.7,18.9c3.2,16.3,6.2,31.5,8.7,44.5c0.3,1.8,0.7,3.5,1,5.2c2.4,12.2,0.7,24.5-4.2,35.2
	c-5.3,11.7-14.5,21.6-26.6,27.7c1.7-0.9,3.4-1.8,5.1-2.7c13.3-7.4,27.4-17.9,40.7-30.4c37.3-34.8,68.9-84.9,61-124.7
	c-4.7-38.9-34.4-155.6-51.1-251.6c-11.1,3-22.8,4.6-34.8,4.6C581.8,327.3,544.9,308.5,520.4,279.1L520.4,279.1z M529.3,198.3
	c-0.1-1.4-0.1-2.8-0.1-4.2c0-51.8,42-93.9,93.9-93.9c46.2,0,84.6,33.4,92.4,77.4c1.7,9.5,9.8,16.5,19.5,16.5l0,0
	c12.3,0,21.5-11.1,19.4-23.2c-11-62.9-66.1-110.6-132.3-110.2c-72.4,0.5-131.6,59.5-132.4,131.9c-0.3,32.9,11.2,63,30.6,86.4
	C525.7,249.5,529.6,220.9,529.3,198.3z M651.7,283.4c-0.7-4.7-1.2-9.2-1.8-13.7V284C650.5,283.8,651.1,283.6,651.7,283.4
	L651.7,283.4z M679.3,137.7c-14.4-14.4-34.3-23.3-56.3-23.3c-43.9,0-79.6,35.6-79.6,79.6h106.4c-4.8,14.6-4.1,41.6-0.1,75h0.1
	c30.8-11,52.8-40.4,52.8-74.9C702.7,172,693.8,152.2,679.3,137.7L679.3,137.7z"/>
</svg>
