<?xml version="1.0" encoding="UTF-8"?>
<svg id="_레이어_1" data-name="레이어 1" xmlns="http://www.w3.org/2000/svg" viewBox="0 0 551.03 1024.62">
  <defs>
    <style>
      .cls-1 {
        fill: #00dcf4;
      }
    </style>
  </defs>
  <path class="cls-1" d="m425.53,759.57c-.63,1.46-1.32,2.89-2.07,4.31-6.66,12.42-18.06,23-33.1,29.48-.08.05-.19.09-.29.14l-59.75,25.51c-.18.07-.35.16-.52.25-72.49,38.59-40.64,126.96,15.77,174.39,9.18,7.72,19.01,14.36,29.15,19.52,5.7,2.9,3.71,11.46-2.68,11.46h-121.77s-121.63,0-121.63,0h-.13c-6.39,0-8.38-8.56-2.68-11.46,10.14-5.16,19.97-11.8,29.15-19.52,56.41-47.43,88.27-135.8,15.77-174.39-.17-.09-.34-.17-.52-.25l-59.75-25.51c-.11-.05-.21-.09-.29-.14-15.04-6.48-26.44-17.06-33.1-29.48-.75-1.41-1.44-2.85-2.07-4.31-2.5-5.81,4.53-11.02,9.43-7.01,10.85,8.89,21.84,16.51,32.38,22.37,1.96,1.09,3.89,2.13,5.82,3.09.07.05.17.1.27.14l54.4,27.19c.19.09.37.19.54.3,62.82,39.15,51.99,126.32,12.72,178.25-3.03,4-.24,9.74,4.78,9.74h54.9s54.9,0,54.9,0c5.02,0,7.81-5.73,4.78-9.74-39.27-51.93-50.1-139.09,12.72-178.25.18-.11.36-.21.54-.3l54.4-27.19c.1-.05.19-.1.27-.14,1.93-.97,3.87-2.01,5.82-3.09,10.54-5.86,21.53-13.48,32.38-22.37,4.89-4.01,11.93,1.2,9.43,7.01ZM295.06,151.34c0,1.61.04,3.21.11,4.81-.02-1.63-.05-3.24-.11-4.81Zm136.9,85.09c.03.29.07.57.1.86v-.89s-.07.02-.1.03Zm-30.34,5.24c-49.89,0-90.33-40.44-90.33-90.33h-16.23c.06,1.57.09,3.18.11,4.81,2.52,56.62,49.21,101.75,106.45,101.75,10.58,0,20.8-1.57,30.44-4.44v-16.18c-.03-.29-.07-.57-.1-.86-9.49,3.38-19.7,5.24-30.34,5.24Zm-116.55,6.21c-8.54,47.43-20.36,96.85-26.79,131.65-.79,3.94-3.96,5.92-7.18,5.96-.26.03-.55,0-.81-.02,0,0,0,0,0,0h0s0,0,0,0c-.27.02-.56.06-.81.02-3.22-.04-6.39-2.03-7.18-5.96-11.26-60.96-39.07-166.75-36.78-228.19H68.49C90.6,217.97,9.89,512.7,1.41,583.1c-9.04,45.22,26.86,102.05,69.22,141.57,15.16,14.16,31.16,26.11,46.22,34.48,1.95,1.09,3.89,2.13,5.82,3.1-13.7-6.91-24.09-18.19-30.16-31.44-5.55-12.2-7.46-26.09-4.73-39.95.36-1.94.75-3.91,1.13-5.92,2.91-14.79,6.29-32.04,9.91-50.54,1.69-7.56,3.21-14.84,4.23-21.5.29-1.57.6-3.17.93-4.76l2.07-10.58c1.06-5.41,2.13-10.82,3.19-16.29l4.28-21.82c.7-3.62,1.43-7.25,2.12-10.87,4.6-23.42,9.07-46.17,13.02-66.32.37-.09.74-.18,1.13-.22.45-.07.89-.09,1.35-.09s.9.02,1.35.09c3.11.41,5.96,2.26,6.71,5.57l.16.64c.03.16.08.33.13.57l.27,1.22,1.75,7.66h.02c.17.72,6.71,29.32,14.33,62.47.4,1.72.79,3.47,1.19,5.21.88,3.81,1.75,7.68,2.63,11.56.16.66.31,1.29.45,1.95.4,1.76.82,3.53,1.22,5.27,1.23,5.28,2.42,10.56,3.59,15.71.02.02.02.04.02.07.66,2.85,1.33,5.69,1.94,8.47.35,1.43.66,2.85.98,4.24.42,1.82.81,3.58,1.22,5.33.58,2.62,1.19,5.16,1.75,7.64.19.84.37,1.65.56,2.44.56,2.43,1.09,4.76,1.59,7,.18.72.35,1.47.5,2.2.35,1.45.66,2.83.96,4.19.31,1.34.6,2.63.89,3.88.3,1.23.56,2.4.82,3.53.03.04.03.07.03.11.37,1.67.71,3.22,1.06,4.63.1.38.18.77.27,1.13.21.98.42,1.86.6,2.68.21.86.4,1.61.54,2.24.06.23.1.41.13.59.04.18.08.35.1.48.06.16.08.31.11.45.04.17.08.3.1.43.06.18.08.35.11.46.06.16.08.27.08.29v.02c2.73,12.57,10.23,23.15,20.47,31.18,13.63,10.65,32.06,16.74,50.52,16.92,0,0,0,0,0,0h0s0,0,0,0c18.46-.18,36.89-6.28,50.52-16.92,10.23-8.03,17.74-18.61,20.47-31.18v-.02s.02-.13.08-.29c.03-.11.06-.28.11-.46.02-.13.06-.27.1-.43.03-.13.06-.29.11-.45.02-.13.06-.3.1-.48.03-.18.08-.36.13-.59.13-.64.32-1.38.54-2.24.18-.81.39-1.69.6-2.68.09-.36.17-.75.27-1.13.35-1.4.69-2.95,1.06-4.63,0-.04,0-.07.03-.11.27-1.14.52-2.31.82-3.53.29-1.25.58-2.54.89-3.88.3-1.36.61-2.74.96-4.19.16-.72.32-1.47.5-2.2.5-2.24,1.04-4.57,1.59-7,.19-.79.37-1.61.56-2.44.56-2.47,1.17-5.02,1.75-7.64.4-1.75.79-3.51,1.22-5.33.32-1.38.64-2.81.98-4.24.61-2.79,1.28-5.62,1.94-8.47,0-.02,0-.04.02-.07,1.17-5.15,2.36-10.42,3.59-15.71.39-1.74.81-3.51,1.22-5.27.13-.66.29-1.29.45-1.95.88-3.88,1.75-7.75,2.63-11.56.4-1.74.79-3.49,1.19-5.21,7.61-33.15,14.16-61.75,14.33-62.47h.02l1.75-7.66.27-1.22c.06-.23.1-.41.13-.57l.16-.64c.75-3.31,3.6-5.16,6.71-5.57.45-.07.9-.09,1.35-.09s.9.02,1.35.09c.39.04.76.13,1.13.22,3.95,20.14,8.42,42.9,13.02,66.32.69,3.62,1.42,7.25,2.12,10.87l4.28,21.82c1.06,5.46,2.13,10.88,3.19,16.29l2.07,10.58c.32,1.59.64,3.19.93,4.76,1.01,6.67,2.53,13.95,4.23,21.5,3.62,18.51,7,35.75,9.91,50.54.38,2.01.77,3.98,1.13,5.92,2.73,13.87.82,27.76-4.73,39.95-6.06,13.24-16.45,24.53-30.16,31.44,1.93-.97,3.87-2.01,5.82-3.1,15.06-8.37,31.06-20.32,46.22-34.48,42.36-39.52,78.26-96.35,69.22-141.57-5.32-44.16-39.07-176.61-58.02-285.64-12.6,3.4-25.84,5.22-39.51,5.22-46.89,0-88.79-21.33-116.55-54.8Zm10.1-91.73c-.07-1.59-.11-3.2-.11-4.81,0-58.85,47.71-106.56,106.56-106.56,52.46,0,96.07,37.91,104.92,87.83,1.91,10.78,11.13,18.73,22.09,18.73h0c13.92,0,24.46-12.57,22.06-26.28C538.18,53.66,475.64-.52,400.54,0c-82.21.58-149.42,67.56-150.25,149.77-.38,37.3,12.75,71.53,34.78,98.11,6.03-33.52,10.42-66.05,10.1-91.73Zm138.92,96.71c-.74-5.31-1.41-10.5-2.02-15.57v16.18c.68-.2,1.36-.39,2.02-.6Zm31.4-165.4c-16.34-16.34-38.93-26.45-63.88-26.45-49.89,0-90.33,40.44-90.33,90.33h120.78c-5.5,16.58-4.63,47.27-.1,85.09.03-.01.07-.02.1-.03,34.92-12.5,59.89-45.85,59.89-85.06,0-24.95-10.11-47.52-26.45-63.88Z"/>
</svg>